<svg width="25" height="50" xmlns="http://www.w3.org/2000/svg" xmlns:xlink="http://www.w3.org/1999/xlink" id="svg7047" overflow="hidden"><defs id="defs7051"></defs><g id="g4570" transform="matrix(1.25 0 0 -1.25 2.97125 25)"><path d="M0 0 17.33 18.293C17.512 18.474 17.623 18.724 17.623 19 17.623 19.553 17.176 20 16.623 20 16.347 20 16.098 19.888 15.916 19.707L-2.084 0.707C-2.265 0.525-2.377 0.276-2.377 0-2.377-0.276-2.266-0.526-2.084-0.707L15.916-19.707C16.098-19.889 16.347-20 16.623-20 17.176-20 17.623-19.553 17.623-19 17.623-18.725 17.512-18.475 17.33-18.293L0 0Z" id="path4572" stroke-dashoffset="1" fill="#FFFFFF"/></g></svg>