<svg width="25" height="50" xmlns="http://www.w3.org/2000/svg" xmlns:xlink="http://www.w3.org/1999/xlink" id="svg7057" overflow="hidden"><defs id="defs7061"></defs><g id="g4574" transform="matrix(1.25 0 0 -1.25 24.6337 24.1163)"><path d="M0 0-18 19C-18.181 19.181-18.431 19.293-18.707 19.293-19.26 19.293-19.707 18.846-19.707 18.293-19.707 18.017-19.595 17.767-19.414 17.586L-2.084-0.707-19.414-19C-19.595-19.182-19.707-19.432-19.707-19.707-19.707-20.26-19.26-20.707-18.707-20.707-18.431-20.707-18.181-20.596-18-20.414L0-1.414C0.181-1.233 0.293-0.983 0.293-0.707 0.293-0.431 0.181-0.182 0 0" id="path4576" stroke-dashoffset="1" fill="#FFFFFF"/></g></svg>